<?xml version="1.0" standalone="no"?>
<!DOCTYPE svg PUBLIC "-//W3C//DTD SVG 1.0//EN" "http://www.w3.org/TR/2001/REC-SVG-20010904/DTD/svg10.dtd">
<svg xmlns="http://www.w3.org/2000/svg" xmlns:xlink="http://www.w3.org/1999/xlink" id="body_1" width="110" height="82">

<g transform="matrix(0.1074219 0 0 0.1067708 0 0)">
    <path transform="matrix(9.6 0 0 9.6 128 0)"  d="M80 40C 80 28.95431 76.09476 19.52621 68.28427 11.71573C 60.47379 3.905243 51.0457 0 40 0C 28.95431 0 19.52621 3.905243 11.71573 11.71573C 3.905243 19.52621 0 28.95431 0 40C 0 51.0457 3.905243 60.47379 11.71573 68.28427C 19.52621 76.09476 28.95431 80 40 80C 51.0457 80 60.47379 76.09476 68.28427 68.28427C 76.09476 60.47379 80 51.0457 80 40" stroke="none" fill="#FAFAE2" fill-rule="nonzero" />
    <path transform="matrix(9.6 0 0 9.6 128 0)"  d="M30.1 44C 30.1 43.3 30.1 42.6 30.1 41.9C 30.1 37.9 30.6 34.1 31.3 30.7C 26.9 24.6 21.9 20.2 19 18C 19 19.6 19 21.8 19.2 24.3C 19.4 27.3 19.9 31.2 21 35.3C 23.9 37.5 27.1 40.4 30.1 44z" stroke="none" fill="#2EBAC6" fill-rule="nonzero" />
    <path transform="matrix(9.6 0 0 9.6 128 0)"  d="M46.5 41.9C 46.5 33.8 44.3 26.4 42.5 21.7C 41.6 19.3 40.7 17.3 39.9 15.9C 39.2 17.3 38.2 19.3 37.3 21.7C 35.5 26.4 33.3 33.8 33.3 41.9C 33.3 44.6 33.5 47.2 33.9 49.7C 37.2 54.8 39 60 40 63.8C 41 60 42.8 54.8 45.9 49.7C 46.3 47.2 46.5 44.6 46.5 41.9z" stroke="none" fill="#2EBAC6" fill-rule="nonzero" />
    <path transform="matrix(9.6 0 0 9.6 128 0)"  d="M56.2 22.1C 54 24.2 51.3 27.1 48.7 30.7C 49.4 34.1 49.9 37.9 49.9 41.9C 49.9 42.6 49.9 43.3 49.9 44C 52.9 40.4 56.1 37.5 59.1 35.3C 61 28.1 61.2 21.6 61.1 17.9C 59.8 18.9 58.1 20.3 56.2 22.1z" stroke="none" fill="#2EBAC6" fill-rule="nonzero" />
    <path transform="matrix(9.6 0 0 9.6 128 0)"  d="M19.9 54.9C 25.7 63 33.8 67.9 37.9 70.1C 37.1 65.5 34.9 56.3 29.1 48.2C 23.3 40.1 15.2 35.2 11.1 33C 11.8 37.6 14 46.8 19.9 54.9z" stroke="none" fill="#2EBAC6" fill-rule="nonzero" />
    <path transform="matrix(9.6 0 0 9.6 128 0)"  d="M60.1 54.9C 65.9 46.8 68.1 37.6 68.9 33C 64.7 35.2 56.7 40.1 50.9 48.2C 45 56.3 42.9 65.5 42.1 70.1C 46.2 67.9 54.3 63 60.1 54.9z" stroke="none" fill="#2EBAC6" fill-rule="nonzero" />
</g>
</svg>