<svg width="80" height="80" fill="none" xmlns="http://www.w3.org/2000/svg">
    <path fill="#E5E5E5" d="M0 0h80v80H0z" />
    <g clip-path="url(#clip0)">
        <path fill="#fff" d="M-735-88H839v752H-735z" />
        <circle cx="40" cy="40" r="40" fill="#FAFAE2" />
        <path transform="matrix(9.6 0 0 9.6 128 0) translateX:(-10)"
            d="M46.5 41.9C 46.5 33.8 44.3 26.4 42.5 21.7C 41.6 19.3 40.7 17.3 39.9 15.9C 39.2 17.3 38.2 19.3 37.3 21.7C 35.5 26.4 33.3 33.8 33.3 41.9C 33.3 44.6 33.5 47.2 33.9 49.7C 37.2 54.8 39 60 40 63.8C 41 60 42.8 54.8 45.9 49.7C 46.3 47.2 46.5 44.6 46.5 41.9z"
            stroke="none" fill="#2EBAC6" fill-rule="nonzero" />
        <path transform="matrix(9.6 0 0 9.6 128 0) translateX:(-10)"
            d="M30.1 44C 30.1 43.3 30.1 42.6 30.1 41.9C 30.1 37.9 30.6 34.1 31.3 30.7C 26.9 24.6 21.9 20.2 19 18C 19 19.6 19 21.8 19.2 24.3C 19.4 27.3 19.9 31.2 21 35.3C 23.9 37.5 27.1 40.4 30.1 44z"
            stroke="none" fill="#2EBAC6" fill-rule="nonzero" />
        <path transform="matrix(9.6 0 0 9.6 128 0) translateX:(-10)"
            d="M46.5 41.9C 46.5 33.8 44.3 26.4 42.5 21.7C 41.6 19.3 40.7 17.3 39.9 15.9C 39.2 17.3 38.2 19.3 37.3 21.7C 35.5 26.4 33.3 33.8 33.3 41.9C 33.3 44.6 33.5 47.2 33.9 49.7C 37.2 54.8 39 60 40 63.8C 41 60 42.8 54.8 45.9 49.7C 46.3 47.2 46.5 44.6 46.5 41.9z"
            stroke="none" fill="#2EBAC6" fill-rule="nonzero" />
        <path transform="matrix(9.6 0 0 9.6 128 0) translateX:(-10)"
            d="M56.2 22.1C 54 24.2 51.3 27.1 48.7 30.7C 49.4 34.1 49.9 37.9 49.9 41.9C 49.9 42.6 49.9 43.3 49.9 44C 52.9 40.4 56.1 37.5 59.1 35.3C 61 28.1 61.2 21.6 61.1 17.9C 59.8 18.9 58.1 20.3 56.2 22.1z"
            stroke="none" fill="#2EBAC6" fill-rule="nonzero" />
        <path transform="matrix(9.6 0 0 9.6 128 0) translateX:(-10)"
            d="M19.9 54.9C 25.7 63 33.8 67.9 37.9 70.1C 37.1 65.5 34.9 56.3 29.1 48.2C 23.3 40.1 15.2 35.2 11.1 33C 11.8 37.6 14 46.8 19.9 54.9z"
            stroke="none" fill="#2EBAC6" fill-rule="nonzero" />
        <path transform="matrix(9.6 0 0 9.6 128 0) translateX:(-10)"
            d="M60.1 54.9C 65.9 46.8 68.1 37.6 68.9 33C 64.7 35.2 56.7 40.1 50.9 48.2C 45 56.3 42.9 65.5 42.1 70.1C 46.2 67.9 54.3 63 60.1 54.9z"
            stroke="none" fill="#2EBAC6" fill-rule="nonzero" />
    </g>
    <defs>
        <clipPath id="clip0">
            <path fill="#fff" transform="translate(-735 -88)" d="M0 0h1574v752H0z" />
        </clipPath>
    </defs>
</svg>