<svg width="80" height="80" fill="none" xmlns="http://www.w3.org/2000/svg">
    <path fill="#E5E5E5" d="M0 0h80v80H0z" />
    <g clip-path="url(#clip0)">
        <path fill="#fff" d="M-735-88H839v752H-735z" />
        <circle cx="40" cy="40" r="40" fill="#FAFAE2" />
        <path transform="matrix(9.6 0 0 9.6 128 0) translateX:(-10)"
            d="M61.2 35.7C 58.1 33.7 54.7 32.6 51.2 32.3L51.2 32.3L54.7 30.2C 55.1 29.9 55.4 29.5 55.4 29L55.4 29L55.4 26.8L55.8 27.2C 56.3 27.7 57.2 27.7 57.8 27.2L57.8 27.2L63.4 21.6C 63.9 21.1 63.9 20.2 63.4 19.6C 60.2 16.2 55.3 15.2 51 17.1C 46 19.2 42 24 40 29.6C 38 24 34 19.2 29.1 17.2C 24.9 15.3 19.9 16.3 16.7 19.7C 16.2 20.2 16.2 21.1 16.7 21.7L16.7 21.7L22.3 27.3C 22.8 27.8 23.7 27.8 24.3 27.3L24.3 27.3L24.7 26.9L24.7 29.1C 24.7 29.6 25 30 25.4 30.3L25.4 30.3L28.9 32.4C 25.4 32.7 22 33.8 18.9 35.8C 14.6 38.6 12.6 43.7 13.8 48.6C 14 49.4 14.7 49.8 15.5 49.7C 15.6 49.7 15.7 49.7 15.7 49.6L15.7 49.6L22.9 46.6C 23.3 46.4 23.6 46.1 23.7 45.7L23.7 45.7L24.2 43.7L25.1 44.7C 25.5 45.2 26.2 45.3 26.7 45L26.7 45L35.8 40.8L33.4 72C 35.5 72.6 37.7 72.9 40 72.9C 42.3 72.9 44.5 72.6 46.6 72L46.6 72L44.3 40.7L53.4 44.9C 54 45.2 54.6 45 55 44.6L55 44.6L55.9 43.6L56.4 45.6C 56.5 46 56.8 46.4 57.2 46.5L57.2 46.5L64.4 49.5C 64.5 49.5 64.6 49.6 64.6 49.6C 65.4 49.8 66.1 49.3 66.3 48.5C 67.5 43.6 65.4 38.5 61.2 35.7zM39.8 38.8C 39.9 38.8 40 38.8 40 38.8C 40 38.8 40 38.8 40 38.8C 40 38.8 40 38.8 40.1 38.8C 40.1 38.8 40.2 38.8 40.2 38.8L40.2 38.8L40.3 38.8L39.8 38.8z"
            stroke="none" fill="#7B8B33" fill-rule="nonzero" />
    </g>
    <defs>
        <clipPath id="clip0">
            <path fill="#fff" transform="translate(-735 -88)" d="M0 0h1574v752H0z" />
        </clipPath>
    </defs>
</svg>