<svg width="36" height="36" fill="none" xmlns="http://www.w3.org/2000/svg"><g clip-path="url(#clip0)"><path d="M26.457 11.496l-7.122-4.078a2.731 2.731 0 00-2.737.01l-7.095 4.126a2.746 2.746 0 00-1.362 2.371l.028 8.21a2.75 2.75 0 001.379 2.368l7.12 4.077a2.732 2.732 0 002.739-.008l7.097-4.128a2.755 2.755 0 001.355-2.376l-.028-8.21a2.751 2.751 0 00-1.374-2.362z" fill="#FFF19F"/><path d="M23.227 13.98l-4.402-2.52a1.688 1.688 0 00-1.691.005l-4.386 2.551a1.697 1.697 0 00-.841 1.466l.017 5.074a1.7 1.7 0 00.852 1.464l4.4 2.52a1.688 1.688 0 001.693-.005l4.387-2.552a1.702 1.702 0 00.837-1.468l-.017-5.074a1.7 1.7 0 00-.849-1.46z" fill="#FFDD0F"/><path d="M21.23 15.516l-2.72-1.558a1.043 1.043 0 00-1.045.003l-2.71 1.577a1.05 1.05 0 00-.52.906l.01 3.136a1.051 1.051 0 00.527.904l2.72 1.557a1.043 1.043 0 001.046-.003l2.711-1.576a1.053 1.053 0 00.518-.908l-.011-3.136a1.05 1.05 0 00-.526-.902z" fill="#FFDD0F"/><path d="M48.4 11.422l-7.122-4.078a2.73 2.73 0 00-2.737.009l-7.096 4.127a2.745 2.745 0 00-1.361 2.371l.027 8.21a2.75 2.75 0 001.38 2.368l7.12 4.077a2.732 2.732 0 002.739-.008l7.097-4.128a2.754 2.754 0 001.355-2.375l-.028-8.21a2.752 2.752 0 00-1.374-2.363z" fill="#FFF19F"/><path d="M45.17 13.906l-4.402-2.52a1.688 1.688 0 00-1.692.005l-4.386 2.55a1.698 1.698 0 00-.841 1.467l.017 5.074a1.7 1.7 0 00.852 1.464l4.4 2.52a1.689 1.689 0 001.694-.005l4.386-2.552a1.703 1.703 0 00.838-1.468l-.017-5.074a1.7 1.7 0 00-.85-1.461z" fill="#FFEB6F"/><path d="M4.172 11.572L-2.95 7.494a2.73 2.73 0 00-2.737.009l-7.096 4.127A2.746 2.746 0 00-14.145 14l.028 8.21a2.749 2.749 0 001.38 2.367l7.119 4.078a2.733 2.733 0 002.74-.008l7.097-4.128a2.755 2.755 0 001.355-2.376l-.028-8.21a2.752 2.752 0 00-1.374-2.362z" fill="#FFF19F"/><path d="M.941 14.056l-4.401-2.52a1.688 1.688 0 00-1.692.005l-4.385 2.55a1.697 1.697 0 00-.842 1.467l.017 5.074a1.7 1.7 0 00.852 1.464l4.4 2.52a1.69 1.69 0 001.694-.005L.97 22.059a1.702 1.702 0 00.838-1.468l-.017-5.074a1.7 1.7 0 00-.85-1.461z" fill="#FFEB6F"/><path d="M37.377-8.046l-7.121-4.079a2.73 2.73 0 00-2.738.01L20.424-7.99a2.745 2.745 0 00-1.362 2.371l.028 8.21a2.75 2.75 0 001.38 2.368l7.119 4.077a2.732 2.732 0 002.74-.008l7.097-4.128a2.754 2.754 0 001.355-2.375l-.028-8.21a2.751 2.751 0 00-1.375-2.362z" fill="#FFF19F"/><path d="M34.147-5.562l-4.401-2.52a1.688 1.688 0 00-1.692.005l-4.385 2.55a1.698 1.698 0 00-.842 1.466l.017 5.074a1.7 1.7 0 00.852 1.464l4.4 2.52a1.688 1.688 0 001.694-.005l4.386-2.551a1.702 1.702 0 00.838-1.468l-.018-5.074a1.7 1.7 0 00-.849-1.461z" fill="#FFEB6F"/><path d="M11.887-5.562l-4.401-2.52a1.688 1.688 0 00-1.692.005L1.41-5.527A1.697 1.697 0 00.567-4.06l.017 5.074a1.7 1.7 0 00.852 1.464l4.4 2.52a1.688 1.688 0 001.694-.005l4.386-2.551a1.703 1.703 0 00.838-1.468l-.017-5.074a1.702 1.702 0 00-.85-1.461zM32.15-4.027l-2.72-1.558a1.043 1.043 0 00-1.045.004l-2.71 1.576a1.05 1.05 0 00-.52.906l.01 3.136a1.05 1.05 0 00.527.904l2.72 1.558a1.044 1.044 0 001.046-.003L32.169.919a1.053 1.053 0 00.518-.907l-.01-3.137a1.052 1.052 0 00-.526-.902z" fill="#FFDD0F"/><path d="M15.05-7.97L7.928-12.05a2.731 2.731 0 00-2.737.01l-7.095 4.126a2.746 2.746 0 00-1.362 2.371l.027 8.21a2.75 2.75 0 001.38 2.368l7.12 4.077A2.733 2.733 0 008 9.105l7.097-4.128A2.755 2.755 0 0016.452 2.6l-.028-8.21A2.75 2.75 0 0015.05-7.97zM37.377 31.04l-7.121-4.079a2.73 2.73 0 00-2.738.01l-7.095 4.126a2.746 2.746 0 00-1.362 2.372l.028 8.21a2.75 2.75 0 001.38 2.367l7.119 4.077a2.732 2.732 0 002.74-.007l7.097-4.129a2.755 2.755 0 001.355-2.375l-.028-8.21a2.753 2.753 0 00-1.375-2.363z" fill="#FFF19F"/><path d="M34.147 33.472l-4.401-2.52a1.688 1.688 0 00-1.692.006l-4.385 2.55a1.698 1.698 0 00-.842 1.467l.017 5.074a1.7 1.7 0 00.852 1.463l4.4 2.52a1.689 1.689 0 001.694-.005l4.386-2.552a1.702 1.702 0 00.838-1.468l-.018-5.074a1.7 1.7 0 00-.849-1.46z" fill="#FFEB6F"/><path d="M11.861 33.523l-4.401-2.52a1.688 1.688 0 00-1.692.006l-4.385 2.55a1.697 1.697 0 00-.842 1.467L.558 40.1a1.7 1.7 0 00.852 1.463l4.4 2.52a1.689 1.689 0 001.694-.005l4.386-2.552a1.703 1.703 0 00.838-1.468l-.017-5.074a1.7 1.7 0 00-.85-1.46zM32.15 35.059L29.43 33.5a1.043 1.043 0 00-1.045.003l-2.71 1.577a1.05 1.05 0 00-.52.906l.01 3.136a1.05 1.05 0 00.527.904l2.72 1.557a1.044 1.044 0 001.046-.003l2.711-1.576a1.053 1.053 0 00.518-.908l-.01-3.136a1.052 1.052 0 00-.526-.902z" fill="#FFDD0F"/><path d="M15.092 31.115L7.97 27.037a2.73 2.73 0 00-2.737.009l-7.096 4.127a2.746 2.746 0 00-1.362 2.372l.028 8.21a2.75 2.75 0 001.38 2.367l7.12 4.077a2.732 2.732 0 002.738-.008l7.098-4.128a2.755 2.755 0 001.355-2.375l-.028-8.21a2.752 2.752 0 00-1.374-2.363z" fill="#FFF19F"/><path d="M.89-1.03l-4.402-2.52a1.688 1.688 0 00-1.692.005L-9.589-.994a1.697 1.697 0 00-.842 1.466l.017 5.074A1.698 1.698 0 00-9.56 7.01l4.4 2.52a1.689 1.689 0 001.693-.005L.918 6.973a1.702 1.702 0 00.838-1.468L1.739.431a1.701 1.701 0 00-.849-1.46z" fill="#FFDD0F"/><path d="M11.804-5.562l-4.401-2.52a1.688 1.688 0 00-1.692.005l-4.385 2.55A1.697 1.697 0 00.484-4.06L.5 1.013a1.7 1.7 0 00.852 1.464l4.4 2.52a1.688 1.688 0 001.694-.005l4.386-2.551a1.702 1.702 0 00.838-1.468l-.017-5.074a1.7 1.7 0 00-.85-1.461zM11.804 33.422l-4.401-2.52a1.688 1.688 0 00-1.692.005l-4.385 2.551a1.697 1.697 0 00-.842 1.466L.5 39.998a1.7 1.7 0 00.852 1.464l4.4 2.52a1.688 1.688 0 001.694-.005l4.386-2.552a1.702 1.702 0 00.838-1.468l-.017-5.074a1.7 1.7 0 00-.85-1.46z" fill="#FFEB6F"/></g><defs><clipPath id="clip0"><rect width="36" height="36" rx="18" fill="#fff"/></clipPath></defs></svg>