<svg width="36" height="36" viewBox="0 0 36 36" fill="none" xmlns="http://www.w3.org/2000/svg">
<g clip-path="url(#clip0)">
<path d="M26.4572 11.4962L19.3355 7.41822C18.9188 7.17871 18.4463 7.0534 17.9657 7.05495C17.4851 7.0565 17.0134 7.18485 16.5983 7.42706L9.50274 11.5542C9.08839 11.796 8.74461 12.1422 8.50566 12.5582C8.2667 12.9742 8.14089 13.4456 8.14078 13.9253L8.1686 22.1353C8.17149 22.6161 8.30036 23.0877 8.54234 23.5031C8.78433 23.9185 9.13097 24.2632 9.54773 24.5029L16.6674 28.5798C17.0842 28.8197 17.5571 28.9453 18.038 28.9439C18.519 28.9426 18.9911 28.8143 19.4067 28.572L26.5042 24.4437C26.9173 24.2 27.2596 23.8527 27.4973 23.4361C27.7349 23.0195 27.8597 22.548 27.8592 22.0684L27.8312 13.8586C27.8278 13.3792 27.6992 12.9091 27.4582 12.4948C27.2172 12.0804 26.8721 11.7362 26.4572 11.4962Z" fill="#FFF19F"/>
<path d="M23.227 13.9803L18.8253 11.4599C18.5678 11.3119 18.2758 11.2344 17.9787 11.2354C17.6817 11.2363 17.3902 11.3156 17.1336 11.4653L12.7483 14.0161C12.4921 14.1656 12.2796 14.3796 12.1319 14.6368C11.9842 14.894 11.9065 15.1854 11.9065 15.482L11.9237 20.5561C11.9254 20.8533 12.0049 21.1449 12.1544 21.4018C12.304 21.6586 12.5182 21.8718 12.7759 22.02L17.1762 24.5398C17.4338 24.6881 17.7261 24.7657 18.0234 24.7648C18.3206 24.764 18.6124 24.6847 18.8692 24.535L23.2559 21.9834C23.5113 21.8328 23.7229 21.618 23.8698 21.3604C24.0168 21.1028 24.0938 20.8113 24.0934 20.5148L24.0762 15.4406C24.0741 15.1443 23.9947 14.8537 23.8457 14.5976C23.6968 14.3414 23.4834 14.1287 23.227 13.9803Z" fill="#FFDD0F"/>
<path d="M21.2305 15.5156L18.5101 13.9579C18.351 13.8664 18.1705 13.8185 17.9869 13.8191C17.8033 13.8197 17.6232 13.8687 17.4646 13.9613L14.7547 15.5378C14.5964 15.6302 14.4651 15.7625 14.3738 15.9214C14.2826 16.0803 14.2346 16.2604 14.2346 16.4437L14.2452 19.5798C14.2463 19.7634 14.2955 19.9436 14.3879 20.1023C14.4804 20.2609 14.6128 20.3926 14.7719 20.4842L17.4915 22.0414C17.6507 22.1331 17.8313 22.1811 18.015 22.1806C18.1988 22.1801 18.3791 22.1311 18.5378 22.0385L21.249 20.4616C21.4068 20.3685 21.5376 20.2358 21.6284 20.0767C21.7192 19.9176 21.7669 19.7375 21.7667 19.5543L21.756 16.4182C21.7547 16.235 21.7055 16.0553 21.6133 15.897C21.5211 15.7387 21.3892 15.6072 21.2305 15.5156Z" fill="#FFDD0F"/>
<path d="M48.4 11.4217L41.2782 7.34382C40.8616 7.10429 40.389 6.97895 39.9084 6.98048C39.4278 6.98201 38.9561 7.11035 38.541 7.35253L31.4454 11.4798C31.031 11.7217 30.6872 12.0679 30.4483 12.4841C30.2093 12.9002 30.0836 13.3717 30.0836 13.8515L30.1114 22.0614C30.1143 22.5422 30.2431 23.0138 30.4851 23.4292C30.7271 23.8447 31.0738 24.1894 31.4906 24.4291L38.6103 28.506C39.0272 28.7459 39.5 28.8715 39.981 28.8701C40.462 28.8688 40.9341 28.7405 41.3496 28.4982L48.4471 24.3699C48.8602 24.1262 49.2025 23.7789 49.4401 23.3623C49.6778 22.9457 49.8025 22.4742 49.802 21.9946L49.7742 13.7848C49.7708 13.3053 49.6423 12.8351 49.4012 12.4206C49.1602 12.0061 48.8151 11.6618 48.4 11.4217Z" fill="#FFF19F"/>
<path d="M45.1692 13.906L40.7677 11.3857C40.5102 11.2376 40.2182 11.1602 39.9211 11.1611C39.6241 11.1621 39.3325 11.2414 39.076 11.3911L34.6905 13.9419C34.4344 14.0914 34.2219 14.3054 34.0742 14.5626C33.9265 14.8198 33.8488 15.1112 33.8488 15.4078L33.8661 20.4818C33.8677 20.779 33.9473 21.0706 34.0968 21.3275C34.2464 21.5843 34.4606 21.7975 34.7182 21.9456L39.1186 24.4654C39.3762 24.6137 39.6684 24.6913 39.9657 24.6905C40.2629 24.6897 40.5547 24.6104 40.8115 24.4606L45.1981 21.9091C45.4535 21.7585 45.6651 21.5438 45.812 21.2864C45.9589 21.0289 46.036 20.7375 46.0357 20.4411L46.0185 15.3669C46.0165 15.0705 45.9371 14.7798 45.7881 14.5235C45.6391 14.2673 45.4258 14.0544 45.1692 13.906Z" fill="#FFEB6F"/>
<path d="M4.17164 11.5719L-2.95014 7.49391C-3.36682 7.25439 -3.83932 7.12908 -4.31994 7.13063C-4.80055 7.13218 -5.27224 7.26054 -5.68737 7.50274L-12.7829 11.6299C-13.1973 11.8717 -13.541 12.2179 -13.78 12.6339C-14.0189 13.0499 -14.1447 13.5213 -14.1448 14.001L-14.1169 22.211C-14.1141 22.6918 -13.9852 23.1634 -13.7432 23.5788C-13.5012 23.9942 -13.1546 24.3389 -12.7378 24.5785L-5.61805 28.6555C-5.20116 28.8953 -4.72834 29.021 -4.24737 29.0196C-3.76639 29.0182 -3.29431 28.89 -2.87879 28.6477L4.21873 24.5195C4.63181 24.2758 4.97409 23.9284 5.21173 23.5118C5.44938 23.0952 5.57415 22.6237 5.57366 22.1441L5.54584 13.9342C5.54235 13.4549 5.41372 12.9848 5.17269 12.5705C4.93166 12.1561 4.58659 11.8119 4.17164 11.5719Z" fill="#FFF19F"/>
<path d="M0.941305 14.056L-3.46021 11.5357C-3.71772 11.3876 -4.00974 11.3101 -4.30678 11.311C-4.60383 11.312 -4.89537 11.3913 -5.15194 11.541L-9.53736 14.0918C-9.7935 14.2413 -10.006 14.4553 -10.1537 14.7125C-10.3014 14.9697 -10.3791 15.2611 -10.3791 15.5577L-10.3618 20.6318C-10.3602 20.929 -10.2806 21.2206 -10.1311 21.4775C-9.98158 21.7343 -9.76729 21.9475 -9.50966 22.0956L-5.10938 24.6155C-4.85173 24.7637 -4.5595 24.8413 -4.26225 24.8405C-3.96499 24.8396 -3.67321 24.7603 -3.41641 24.6106L0.970221 22.0591C1.22554 21.9085 1.4371 21.6939 1.584 21.4364C1.73089 21.1789 1.80801 20.8876 1.80773 20.5912L1.79057 15.517C1.78859 15.2206 1.70919 14.9299 1.56022 14.6736C1.41125 14.4173 1.1979 14.2044 0.941305 14.056Z" fill="#FFEB6F"/>
<path d="M37.3774 -8.04643L30.2558 -12.1247C29.8391 -12.3642 29.3666 -12.4896 28.886 -12.488C28.4053 -12.4865 27.9336 -12.3581 27.5185 -12.1159L20.423 -7.98872C20.0086 -7.74689 19.6648 -7.40074 19.4259 -6.98472C19.1869 -6.5687 19.0611 -6.09733 19.061 -5.61757L19.089 2.5923C19.0918 3.07307 19.2207 3.54469 19.4627 3.96012C19.7046 4.37556 20.0513 4.72029 20.4681 4.95994L27.5879 9.03687C28.0047 9.27677 28.4776 9.40239 28.9585 9.40103C29.4395 9.39967 29.9116 9.27138 30.3271 9.02913L37.4246 4.90079C37.8377 4.65708 38.18 4.30975 38.4176 3.89315C38.6553 3.47655 38.78 3.00513 38.7796 2.52552L38.7517 -5.68435C38.7482 -6.16365 38.6195 -6.63371 38.3784 -7.048C38.1374 -7.46229 37.7923 -7.80646 37.3774 -8.04643Z" fill="#FFF19F"/>
<path d="M34.1472 -5.56239L29.7456 -8.08283C29.4881 -8.23087 29.1961 -8.30832 28.899 -8.30736C28.602 -8.30641 28.3105 -8.22708 28.054 -8.07739L23.6685 -5.52659C23.4124 -5.37712 23.1998 -5.16312 23.0521 -4.90592C22.9044 -4.64871 22.8268 -4.3573 22.8268 -4.06071L22.8439 1.01344C22.8456 1.31064 22.9252 1.60221 23.0747 1.85906C23.2242 2.11591 23.4385 2.32906 23.6961 2.47726L28.0966 4.99697C28.3542 5.14528 28.6464 5.22295 28.9437 5.22212C29.2409 5.22129 29.5327 5.142 29.7895 4.99225L34.1761 2.44072C34.4315 2.29012 34.643 2.07546 34.7899 1.81797C34.9368 1.56049 35.014 1.26911 35.0137 0.972666L34.9965 -4.10135C34.9945 -4.39777 34.9151 -4.68854 34.7661 -4.94481C34.6172 -5.20109 34.4038 -5.41399 34.1472 -5.56239Z" fill="#FFEB6F"/>
<path d="M11.8874 -5.56239L7.48581 -8.08283C7.2283 -8.23087 6.93629 -8.30832 6.63926 -8.30736C6.34224 -8.30641 6.05074 -8.22708 5.7942 -8.07739L1.40878 -5.52659C1.1526 -5.37712 0.940066 -5.16312 0.792372 -4.90592C0.644678 -4.64871 0.566985 -4.3573 0.567017 -4.06071L0.584177 1.01344C0.585842 1.31064 0.665411 1.60221 0.814937 1.85906C0.964463 2.11591 1.17874 2.32906 1.43636 2.47726L5.83679 4.99697C6.09441 5.14528 6.38662 5.22295 6.68389 5.22212C6.98116 5.22129 7.27293 5.142 7.52973 4.99225L11.9164 2.44072C12.1717 2.29012 12.3833 2.07546 12.5302 1.81797C12.6771 1.56049 12.7542 1.26911 12.7539 0.972666L12.7367 -4.10135C12.7347 -4.39777 12.6553 -4.68854 12.5064 -4.94481C12.3574 -5.20109 12.144 -5.41399 11.8874 -5.56239Z" fill="#FFDD0F"/>
<path d="M32.1508 -4.02716L29.4301 -5.58486C29.271 -5.67635 29.0905 -5.72422 28.9069 -5.72363C28.7234 -5.72303 28.5432 -5.67399 28.3846 -5.58147L25.6747 -4.00502C25.5164 -3.91262 25.3851 -3.78035 25.2938 -3.62138C25.2026 -3.46242 25.1545 -3.28232 25.1545 -3.09902L25.1652 0.0370693C25.1663 0.220693 25.2155 0.400823 25.3079 0.559495C25.4003 0.718168 25.5327 0.849834 25.6919 0.94137L28.4115 2.49871C28.5707 2.59035 28.7514 2.63834 28.9351 2.63783C29.1188 2.63732 29.2992 2.58833 29.4579 2.4958L32.169 0.918871C32.3268 0.825771 32.4576 0.693091 32.5484 0.533958C32.6392 0.374826 32.6868 0.194754 32.6867 0.0115433L32.6761 -3.12455C32.6747 -3.30772 32.6255 -3.48736 32.5334 -3.64568C32.4413 -3.804 32.3094 -3.9355 32.1508 -4.02716Z" fill="#FFDD0F"/>
<path d="M15.05 -7.97086L7.92822 -12.0488C7.51157 -12.2883 7.03908 -12.4136 6.55848 -12.4121C6.07788 -12.4105 5.6062 -12.2822 5.19111 -12.0399L-1.90442 -7.91279C-2.31878 -7.67096 -2.66255 -7.3248 -2.90151 -6.90878C-3.14046 -6.49276 -3.26627 -6.0214 -3.26639 -5.54164L-3.23857 2.66823C-3.2357 3.149 -3.10684 3.62061 -2.86485 4.03605C-2.62287 4.45148 -2.27619 4.79621 -1.85941 5.03587L5.26031 9.1128C5.6772 9.35269 6.15001 9.4783 6.63099 9.47694C7.11197 9.47558 7.58408 9.3473 7.9996 9.10506L15.0971 4.97672C15.5102 4.73304 15.8525 4.38572 16.0902 3.96911C16.3278 3.55251 16.4525 3.08107 16.452 2.60145L16.4242 -5.60842C16.4208 -6.08778 16.2922 -6.55792 16.0511 -6.97229C15.8101 -7.38666 15.465 -7.73088 15.05 -7.97086Z" fill="#FFF19F"/>
<path d="M37.3774 31.0391L30.2558 26.9613C29.8391 26.7217 29.3666 26.5964 28.886 26.5979C28.4053 26.5995 27.9336 26.7278 27.5185 26.9701L20.423 31.0972C20.0085 31.3391 19.6647 31.6853 19.4257 32.1015C19.1868 32.5176 19.061 32.9891 19.061 33.469L19.089 41.6788C19.0918 42.1596 19.2207 42.6312 19.4627 43.0467C19.7046 43.4621 20.0513 43.8068 20.4681 44.0465L27.5879 48.1234C28.0047 48.3633 28.4776 48.4889 28.9585 48.4875C29.4395 48.4862 29.9116 48.3579 30.3271 48.1157L37.4246 43.9873C37.8377 43.7436 38.18 43.3963 38.4177 42.9797C38.6553 42.5631 38.7801 42.0917 38.7796 41.6121L38.7517 33.4022C38.7483 32.9227 38.6197 32.4525 38.3787 32.038C38.1376 31.6235 37.7925 31.2792 37.3774 31.0391Z" fill="#FFF19F"/>
<path d="M34.1472 33.4724L29.7456 30.9526C29.4881 30.8045 29.1961 30.7271 28.899 30.728C28.602 30.729 28.3105 30.8083 28.054 30.958L23.6685 33.5088C23.4124 33.6583 23.1998 33.8723 23.0521 34.1295C22.9044 34.3867 22.8268 34.6781 22.8268 34.9747L22.8439 40.0488C22.8457 40.3459 22.9253 40.6374 23.0749 40.8941C23.2244 41.1508 23.4386 41.3639 23.6961 41.5121L28.0966 44.0318C28.3542 44.1801 28.6464 44.2577 28.9437 44.2569C29.2409 44.2561 29.5327 44.1768 29.7895 44.027L34.1761 41.4755C34.4315 41.3249 34.643 41.1103 34.7899 40.8528C34.9368 40.5953 35.014 40.3039 35.0137 40.0075L34.9965 34.9334C34.9945 34.637 34.9151 34.3463 34.7661 34.09C34.6172 33.8337 34.4038 33.6208 34.1472 33.4724Z" fill="#FFEB6F"/>
<path d="M11.8614 33.5234L7.45995 31.0036C7.20242 30.8556 6.91039 30.7781 6.61335 30.7791C6.31631 30.78 6.02477 30.8593 5.7682 31.009L1.38278 33.5598C1.12664 33.7093 0.914147 33.9233 0.76646 34.1805C0.618772 34.4377 0.541045 34.7291 0.541016 35.0257L0.558323 40.0998C0.560058 40.3969 0.639648 40.6884 0.789172 40.9451C0.938696 41.2019 1.15292 41.4149 1.41048 41.5631L5.81078 44.0828C6.06841 44.2311 6.36062 44.3087 6.65789 44.3079C6.95516 44.3071 7.24693 44.2278 7.50373 44.078L11.8904 41.5265C12.1457 41.3759 12.3573 41.1612 12.5042 40.9038C12.6511 40.6463 12.7283 40.3549 12.728 40.0585L12.7111 34.9837C12.709 34.6874 12.6294 34.3967 12.4804 34.1406C12.3314 33.8845 12.118 33.6717 11.8614 33.5234Z" fill="#FFDD0F"/>
<path d="M32.1508 35.0585L29.4301 33.5008C29.271 33.4093 29.0905 33.3615 28.9069 33.3621C28.7234 33.3627 28.5432 33.4117 28.3846 33.5042L25.6747 35.0807C25.5165 35.1731 25.3851 35.3054 25.2939 35.4643C25.2026 35.6233 25.1546 35.8034 25.1545 35.9867L25.1652 39.1228C25.1663 39.3064 25.2155 39.4865 25.3079 39.6452C25.4003 39.8038 25.5327 39.9355 25.6919 40.0271L28.4115 41.5844C28.5707 41.676 28.7514 41.724 28.9351 41.7235C29.1188 41.723 29.2992 41.674 29.4579 41.5815L32.169 40.0046C32.3268 39.9115 32.4576 39.7788 32.5484 39.6197C32.6392 39.4605 32.6868 39.2804 32.6867 39.0972L32.6761 35.9611C32.6747 35.778 32.6255 35.5983 32.5334 35.44C32.4413 35.2817 32.3094 35.1502 32.1508 35.0585Z" fill="#FFDD0F"/>
<path d="M15.0919 31.1148L7.97009 27.0369C7.55344 26.7974 7.08095 26.672 6.60035 26.6736C6.11975 26.6751 5.64807 26.8035 5.23298 27.0458L-1.86255 31.1729C-2.277 31.4148 -2.62082 31.761 -2.85978 32.1772C-3.09875 32.5933 -3.22451 33.0648 -3.22452 33.5447L-3.1967 41.7545C-3.19383 42.2353 -3.06497 42.7069 -2.82298 43.1223C-2.581 43.5378 -2.23432 43.8825 -1.81754 44.1222L5.30218 48.1991C5.71907 48.439 6.19188 48.5646 6.67286 48.5632C7.15384 48.5619 7.62595 48.4336 8.04148 48.1914L15.139 44.063C15.5521 43.8193 15.8944 43.472 16.1321 43.0554C16.3697 42.6388 16.4944 42.1674 16.4939 41.6877L16.4661 33.4779C16.4627 32.9984 16.3342 32.5281 16.0932 32.1137C15.8521 31.6992 15.507 31.3549 15.0919 31.1148Z" fill="#FFF19F"/>
<path d="M0.890136 -1.0298L-3.51197 -3.55012C-3.7695 -3.69815 -4.06153 -3.77561 -4.35857 -3.77465C-4.65562 -3.77369 -4.94713 -3.69437 -5.2037 -3.54468L-9.58912 -0.993871C-9.84529 -0.844402 -10.0578 -0.630403 -10.2055 -0.373202C-10.3532 -0.116001 -10.4309 0.175415 -10.4309 0.472005L-10.4136 5.54615C-10.412 5.84336 -10.3325 6.13495 -10.1829 6.39182C-10.0334 6.64868 -9.81908 6.86182 -9.56141 7.00997L-5.16114 9.52968C-4.90351 9.67799 -4.61127 9.75566 -4.314 9.75483C-4.01674 9.75401 -3.72497 9.67471 -3.46817 9.52496L0.918461 6.97343C1.1738 6.82283 1.38537 6.60817 1.53227 6.35068C1.67916 6.0932 1.75627 5.80182 1.75597 5.50538L1.73881 0.431357C1.73691 0.134977 1.65761 -0.155763 1.50876 -0.412056C1.3599 -0.66835 1.14664 -0.881301 0.890136 -1.0298Z" fill="#FFDD0F"/>
<path d="M11.8043 -5.56239L7.40268 -8.08283C7.14517 -8.23087 6.85316 -8.30832 6.55613 -8.30736C6.25911 -8.30641 5.96761 -8.22708 5.71107 -8.07739L1.32565 -5.52659C1.06947 -5.37712 0.856936 -5.16312 0.709242 -4.90592C0.561548 -4.64871 0.483856 -4.3573 0.483887 -4.06071L0.501047 1.01344C0.502712 1.31064 0.582281 1.60221 0.731807 1.85906C0.881333 2.11591 1.09561 2.32906 1.35323 2.47726L5.75366 4.99697C6.01128 5.14528 6.30349 5.22295 6.60076 5.22212C6.89803 5.22129 7.1898 5.142 7.4466 4.99225L11.8332 2.44072C12.0886 2.29012 12.3001 2.07546 12.447 1.81797C12.5939 1.56049 12.6711 1.26911 12.6708 0.972666L12.6536 -4.10135C12.6516 -4.39777 12.5722 -4.68854 12.4232 -4.94481C12.2743 -5.20109 12.0609 -5.41399 11.8043 -5.56239Z" fill="#FFEB6F"/>
<path d="M11.8043 33.4222L7.40268 30.9018C7.14517 30.7538 6.85316 30.6763 6.55613 30.6773C6.25911 30.6782 5.96761 30.7575 5.71107 30.9072L1.32565 33.458C1.06947 33.6075 0.856936 33.8215 0.709242 34.0787C0.561548 34.3359 0.483856 34.6273 0.483887 34.9239L0.501047 39.9981C0.502712 40.2953 0.582281 40.5868 0.731807 40.8437C0.881333 41.1005 1.09561 41.3137 1.35323 41.4619L5.75366 43.9816C6.01128 44.1299 6.30349 44.2076 6.60076 44.2067C6.89803 44.2059 7.1898 44.1266 7.4466 43.9769L11.8332 41.4253C12.0886 41.2747 12.3001 41.0601 12.447 40.8026C12.5939 40.5451 12.6711 40.2537 12.6708 39.9573L12.6536 34.8833C12.6516 34.5868 12.5722 34.2961 12.4232 34.0398C12.2743 33.7835 12.0609 33.5706 11.8043 33.4222Z" fill="#FFEB6F"/>
</g>
<defs>
<clipPath id="clip0">
<rect width="36" height="36" rx="18" fill="white"/>
</clipPath>
</defs>
</svg>
