<svg width="80" height="80" fill="none" xmlns="http://www.w3.org/2000/svg"><path fill="#E5E5E5" d="M0 0h80v80H0z"/><g clip-path="url(#clip0)"><path fill="#fff" d="M-735-88H839v752H-735z"/><circle cx="40" cy="40" r="40" fill="#FAFAE2"/><path transform="matrix(1.125 0 0 1.125 15 0) translateX:(-10)"  d="M67.7 40.1C 67.89999 37.7 67.1 35.5 65.5 33.6C 65.4 33.5 65.4 33.4 65.4 33.3C 65.9 32 66 30.7 65.9 29.3C 65.7 27.3 64.9 25.5 63.6 24C 62.1 22.3 60.2 21.3 57.9 21C 57.7 21 57.6 20.9 57.6 20.7C 56.6 18.3 54.9 16.6 52.6 15.6C 49.9 14.5 47.3 14.7 44.8 16C 44.7 16.1 44.5 16.2 44.3 16.2C 43.3 14.4 41.9 13.1 40 12.3C 38.1 11.5 36.2 11.2 34.2 11.7C 30.2 12.7 27.90001 15.3 27 19.3C 27 19.3 26.9 19.3 26.9 19.3C 25.9 19.2 25 19.2 24 19.4C 21.9 19.8 20.1 20.9 18.8 22.5C 17.2 24.4 16.5 26.6 16.7 29C 16.7 29.1 16.7 29.2 16.6 29.3C 15.8 29.8 15.2 30.4 14.6 31.1C 13.1 32.9 12.4 34.9 12.5 37.3C 12.6 39.1 13.1 40.7 14 42.2C 14.5 42.9 15.1 43.6 15.8 44.2C 15.9 44.3 15.9 44.4 15.9 44.4C 15.9 44.7 15.9 45.1 15.9 45.4C 16.1 48.4 17.5 50.7 19.9 52.4C 22.8 54.4 26 54.5 29.2 53.1C 29.3 53 29.4 53 29.6 53.1C 30.6 53.8 31.6 54.5 32.7 55C 33.4 55.3 34.1 55.6 34.9 55.5C 34.9 55.90001 35 56.3 35 56.7C 35.1 58.7 35.2 60.60001 35.3 62.60001C 35.4 63.80001 35.3 65.00001 35.1 66.2C 34.8 68.2 34.4 70.10001 33.9 72.10001C 33.9 72.2 33.8 72.3 33.8 72.40001C 35.8 72.80001 37.9 73.00001 40 73.00001C 41.4 73.00001 42.7 72.90001 44 72.7C 43.6 70.9 43.2 69.10001 42.9 67.2C 42.8 66.3 42.7 65.4 42.7 64.50001C 42.8 62.70001 43.1 60.90001 43.4 59.10001C 43.4 59.00001 43.5 58.90001 43.6 58.80001C 44.6 57.80001 45.6 56.70001 46.6 55.70001C 46.8 55.50001 47.1 55.20001 47.4 55.00001C 47.5 55.00001 47.6 55.10001 47.6 55.20001C 49.7 56.50001 51.9 56.90001 54.2 56.40001C 56 56.10001 57.5 55.30001 58.8 54.10001C 60.4 52.60001 61.4 50.70001 61.7 48.50001C 61.7 48.30001 61.8 48.20001 62 48.20001C 65.4 46.6 67.4 43.9 67.7 40.1zM34.3 52.8C 33.9 52.7 33.5 52.6 33.1 52.4C 32.5 52.1 31.9 51.8 31.3 51.4C 32.1 50.6 32.7 49.9 33.2 48.9C 33.8 50.2 34.4 51.4 35 52.7C 34.8 52.8 34.6 52.8 34.3 52.8zM39.5 51.6C 39.4 52.1 39.1 52.7 38.9 53.2C 38.8 53.4 38.7 53.5 38.6 53.7C 38.3 53.9 38.1 54 37.8 53.8C 37.5 53.59999 37.2 53.3 37 53C 36.2 52 35.7 51 35.2 50C 35 49.6 34.8 49.2 34.6 48.7C 36.3 49.5 38.1 49.8 39.9 49.6C 39.7 50.3 39.6 50.9 39.5 51.6zM42.4 55.6C 42.3 55.6 42.2 55.7 42.1 55.7C 41.6 55.8 41.2 55.6 41.1 55.1C 41 54.6 41 54.1 41 53.6C 41.1 52.1 41.5 50.7 41.9 49.2C 41.9 49.1 42 49.1 42 49.1C 42.4 48.9 42.8 48.7 43.2 48.6C 43.5 50.5 44.2 52.1 45.5 53.6C 44.6 54.3 43.6 55.1 42.4 55.6z" stroke="none" fill="#bd5248" fill-rule="nonzero" /></g><defs><clipPath id="clip0"><path fill="#fff" transform="translate(-735 -88)" d="M0 0h1574v752H0z"/></clipPath></defs></svg>