<?xml version="1.0" standalone="no"?>
<!DOCTYPE svg PUBLIC "-//W3C//DTD SVG 1.0//EN" "http://www.w3.org/TR/2001/REC-SVG-20010904/DTD/svg10.dtd">
<svg xmlns="http://www.w3.org/2000/svg" xmlns:xlink="http://www.w3.org/1999/xlink" id="body_1" width="110" height="82">

<g transform="matrix(0.1074219 0 0 0.1067708 0 0)">
    <path transform="matrix(9.6 0 0 9.6 128 0)"  d="M80 40C 80 28.95431 76.09476 19.52621 68.28427 11.71573C 60.47379 3.905243 51.0457 0 40 0C 28.95431 0 19.52621 3.905243 11.71573 11.71573C 3.905243 19.52621 0 28.95431 0 40C 0 51.0457 3.905243 60.47379 11.71573 68.28427C 19.52621 76.09476 28.95431 80 40 80C 51.0457 80 60.47379 76.09476 68.28427 68.28427C 76.09476 60.47379 80 51.0457 80 40" stroke="none" fill="#FAFAE2" fill-rule="nonzero" />
    <path transform="matrix(9.6 0 0 9.6 128 0)"  d="M45.6 72C 45.6 72 52.9 71.3 59.6 65.5C 66.3 59.7 68.4 53 68.4 53C 51.6 56 45.6 72 45.6 72z" stroke="none" fill="#e97c5e" fill-rule="nonzero" />
    <path transform="matrix(9.6 0 0 9.6 128 0)"  d="M11.6 53C 11.6 53 13.7 59.7 20.4 65.5C 27.1 71.3 34.4 72 34.4 72C 34.4 72 28.4 56 11.6 53z" stroke="none" fill="#e97c5e" fill-rule="nonzero" />
    <path transform="matrix(9.6 0 0 9.6 128 0)"  d="M37.4 61.2L37.4 72.6L42.5 72.6L42.5 61.2C 41.8 61.9 40 63 40 63C 40 63 38.2 61.9 37.4 61.2z" stroke="none" fill="#e97c5e" fill-rule="nonzero" />
    <path transform="matrix(9.6 0 0 9.6 128 0)"  d="M45.9 51.2C 46.1 51.5 46.4 51.7 46.6 52C 48.3 53.7 50.8 54.1 52.7 54.1C 54.2 54.1 55.4 53.9 55.7 53.8L55.7 53.8L56.7 53.6L56.9 52.6C 57 52 58.1 46.5 55.1 43.5C 54.8 43.2 54.6 43 54.3 42.8C 54.7 42.8 55 42.9 55.4 42.9C 59.7 42.9 62.8 38.3 63.1 37.7L63.1 37.7L63.7 36.8L63.1 35.89999C 62.8 35.39999 59.7 30.69999 55.4 30.69999C 55 30.69999 54.7 30.69999 54.3 30.79999C 54.6 30.59999 54.8 30.29999 55.1 30.09999C 58.1 27.09999 57 21.59999 56.9 20.99999L56.9 20.99999L56.7 19.99999L55.7 19.79999C 55.1 19.69999 49.6 18.59999 46.6 21.59999C 46.3 21.89999 46.1 22.09999 45.9 22.39999C 45.9 21.99999 46 21.69999 46 21.29999C 46 16.99999 41.4 13.89999 40.8 13.59999L40.8 13.59999L39.89999 12.99999L39 13.3C 38.5 13.6 33.8 16.7 33.8 21C 33.8 21.4 33.8 21.7 33.9 22.1C 33.7 21.8 33.4 21.6 33.2 21.3C 30.2 18.3 24.7 19.4 24.1 19.5L24.1 19.5L23.1 19.7L22.9 20.7C 22.8 21.3 21.7 26.8 24.7 29.8C 24.99999 30.1 25.2 30.3 25.49999 30.5C 25.09999 30.5 24.79999 30.4 24.39999 30.4C 20.09999 30.4 16.99999 35 16.69999 35.6L16.69999 35.6L16 36.6L16.6 37.5C 16.9 38 20 42.7 24.3 42.7C 24.7 42.7 25 42.7 25.4 42.6C 25.1 42.8 24.9 43.1 24.6 43.3C 21.6 46.3 22.7 51.8 22.8 52.4L22.8 52.4L23 53.4L24 53.6C 24.3 53.7 25.5 53.9 27 53.9C 28.9 53.9 31.4 53.5 33.1 51.8C 33.4 51.5 33.6 51.3 33.8 51C 33.8 51.40001 33.7 51.7 33.7 52.1C 33.7 55.5 36.60001 58.2 38.10001 59.3L38.10001 59.3L39.80001 60.4L41.50001 59.3C 43.00001 58.2 45.90001 55.5 45.90001 52.1C 46 51.9 46 51.5 45.9 51.2zM39.9 47.4C 34 47.4 29.2 42.6 29.2 36.7C 29.2 30.8 34 26 39.9 26C 45.8 26 50.6 30.8 50.6 36.7C 50.6 42.5 45.8 47.4 39.9 47.4z" stroke="none" fill="#e97c5e" fill-rule="nonzero" />
    <path transform="matrix(9.6 0 0 9.6 128 0)"  d="M39.9 29.5C 35.9 29.5 32.7 32.7 32.7 36.7C 32.7 40.7 35.9 43.9 39.9 43.9C 43.9 43.9 47.1 40.7 47.1 36.7C 47.1 32.7 43.9 29.5 39.9 29.5z" stroke="none" fill="#e97c5e" fill-rule="nonzero" />
</g>
</svg>