<svg width="80" height="80" fill="none" xmlns="http://www.w3.org/2000/svg">
    <path fill="#E5E5E5" d="M0 0h80v80H0z" />
    <g clip-path="url(#clip0)">
        <path fill="#fff" d="M-735-88H839v752H-735z" />
        <circle cx="40" cy="40" r="40" fill="#FAFAE2" />
        <path transform="matrix(9.6 0 0 9.6 128 0) translateX:(-10)"
            d="M45.9 51.2C 46.1 51.5 46.4 51.7 46.6 52C 48.3 53.7 50.8 54.1 52.7 54.1C 54.2 54.1 55.4 53.9 55.7 53.8L55.7 53.8L56.7 53.6L56.9 52.6C 57 52 58.1 46.5 55.1 43.5C 54.8 43.2 54.6 43 54.3 42.8C 54.7 42.8 55 42.9 55.4 42.9C 59.7 42.9 62.8 38.3 63.1 37.7L63.1 37.7L63.7 36.8L63.1 35.89999C 62.8 35.39999 59.7 30.69999 55.4 30.69999C 55 30.69999 54.7 30.69999 54.3 30.79999C 54.6 30.59999 54.8 30.29999 55.1 30.09999C 58.1 27.09999 57 21.59999 56.9 20.99999L56.9 20.99999L56.7 19.99999L55.7 19.79999C 55.1 19.69999 49.6 18.59999 46.6 21.59999C 46.3 21.89999 46.1 22.09999 45.9 22.39999C 45.9 21.99999 46 21.69999 46 21.29999C 46 16.99999 41.4 13.89999 40.8 13.59999L40.8 13.59999L39.89999 12.99999L39 13.3C 38.5 13.6 33.8 16.7 33.8 21C 33.8 21.4 33.8 21.7 33.9 22.1C 33.7 21.8 33.4 21.6 33.2 21.3C 30.2 18.3 24.7 19.4 24.1 19.5L24.1 19.5L23.1 19.7L22.9 20.7C 22.8 21.3 21.7 26.8 24.7 29.8C 24.99999 30.1 25.2 30.3 25.49999 30.5C 25.09999 30.5 24.79999 30.4 24.39999 30.4C 20.09999 30.4 16.99999 35 16.69999 35.6L16.69999 35.6L16 36.6L16.6 37.5C 16.9 38 20 42.7 24.3 42.7C 24.7 42.7 25 42.7 25.4 42.6C 25.1 42.8 24.9 43.1 24.6 43.3C 21.6 46.3 22.7 51.8 22.8 52.4L22.8 52.4L23 53.4L24 53.6C 24.3 53.7 25.5 53.9 27 53.9C 28.9 53.9 31.4 53.5 33.1 51.8C 33.4 51.5 33.6 51.3 33.8 51C 33.8 51.40001 33.7 51.7 33.7 52.1C 33.7 55.5 36.60001 58.2 38.10001 59.3L38.10001 59.3L39.80001 60.4L41.50001 59.3C 43.00001 58.2 45.90001 55.5 45.90001 52.1C 46 51.9 46 51.5 45.9 51.2zM39.9 47.4C 34 47.4 29.2 42.6 29.2 36.7C 29.2 30.8 34 26 39.9 26C 45.8 26 50.6 30.8 50.6 36.7C 50.6 42.5 45.8 47.4 39.9 47.4z"
            stroke="none" fill="#FFEB6F" fill-rule="nonzero" />

    </g>
    <defs>
        <clipPath id="clip0">
            <path fill="#fff" transform="translate(-735 -88)" d="M0 0h1574v752H0z" />
        </clipPath>
    </defs>
</svg>