<svg width="80" height="80" fill="none" xmlns="http://www.w3.org/2000/svg"><path fill="#E5E5E5" d="M0 0h80v80H0z"/><g clip-path="url(#clip0)"><path fill="#fff" d="M-116-240h1574v752H-116z"/><circle cx="40" cy="40" r="40" fill="#FAFAE2"/><path d="M34.47 70.508C23.89 68.603 15.176 61.33 11.247 51.61c10.494 2.077 19.142 9.284 23.223 18.9zM68.76 51.593c-10.538 2.055-19.226 9.282-23.315 18.93 10.624-1.882 19.379-9.176 23.315-18.93zM56.626 20.016a2.1 2.1 0 012.357 2.091c.034.57.011 4.126-.012 7.83-.026 4.046-.053 8.268-.01 8.96 0 9.869-7.429 17.989-16.96 18.997v13.042a31.472 31.472 0 01-4 0v-13.04c-9.547-.993-16.992-9.12-16.992-18.999l-.004-.33a20.28 20.28 0 01.027-1.702V22.107a2.1 2.1 0 012.358-2.09c8.48 1.003 15.47 7.977 16.474 16.583l-.002.002c.093.753.142 1.519.144 2.295h.003c.003-.776.051-1.542.144-2.295l-.002-.002c1.005-8.606 7.994-15.58 16.475-16.584z" fill="#FFEB6F"/></g><defs><clipPath id="clip0"><path fill="#fff" transform="translate(-116 -240)" d="M0 0h1574v752H0z"/></clipPath></defs></svg>